Simulation
nRows=32
nColumns=15
endheader
time  TH_x TH_y TH_z SC_y  SC_z  SC_x  AC_y  AC_z  AC_x  GH_y  GH_z  GH_yy  EL_x  PS_y
8.6175  0.000000  0.000000  0.000000  -34.6063464947047  2.580736525455282  -7.266949186846347  41.27865142369904  12.457452815928978  3.941347660112947  106.1897566299288  4.943223457907435  -91.35637766494425  20.586524409876333  120.000000
8.67495  0.000000  0.000000  0.000000  -34.211314898563245  2.4688345055787857  -7.583296977686886  40.78269620174372  12.291830446089218  3.6126493659637653  97.23746674750846  5.548735302450815  -82.40147862911319  20.52362341711188  120.000000
8.7324  0.000000  0.000000  0.000000  -33.86235280152703  2.36401614574303  -7.929912769820623  40.30561450180319  12.167312601301727  3.3285074958025445  89.87419739802449  6.720884513803906  -74.78067418364604  20.62902652211514  120.000000
8.78985  0.000000  0.000000  0.000000  -33.62450547681012  2.32546280298751  -8.2592246545967  39.857650631147614  12.073277978817387  3.1223816135097335  85.2578311644169  8.517148001326428  -69.6860702198876  20.883731488301347  120.000000
8.8473  0.000000  0.000000  0.000000  -33.549921391214596  2.440552646053646  -8.530733715414067  39.45973852352217  12.004735174433945  3.018492891943014  83.22398193169789  10.95616712991692  -67.04503339604932  21.22972563966543  120.000000
8.90475  0.000000  0.000000  0.000000  -33.66881086952816  2.801194979941484  -8.703233618259889  39.125684002764515  11.957170705932423  3.045311321343581  83.07967643346875  14.015700216155583  -66.28844381234855  21.596925174995988  120.000000
8.9622  0.000000  0.000000  0.000000  -33.98321253212832  3.4788106530231175  -8.726550694849086  38.85171563478027  11.924591264756446  3.242569142198335  84.13821460521748  17.612907324123587  -66.85854930294458  21.924849609950172  120.000000
9.01965  0.000000  0.000000  0.000000  -34.4667242020742  4.505603468822097  -8.540685643037138  38.63108771955664  11.905478421773566  3.6498129939025605  85.87021792285924  21.60691536728311  -68.34359132360517  22.174605359944813  120.000000
9.0771  0.000000  0.000000  0.000000  -35.07817758531578  5.8831773664196385  -8.077505525172677  38.474701112748036  11.900723545899414  4.296766634284045  87.89658676978486  25.837268992755394  -70.46252348545231  22.332541886954388  120.000000
9.13455  0.000000  0.000000  0.000000  -35.785393553926475  7.589190256972175  -7.263335620052612  38.40996805661664  11.910673606647102  5.19564049278805  89.93120715674173  30.156573804476988  -73.00245423195364  22.40237177523444  120.000000
9.192  0.000000  0.000000  0.000000  -36.58293589749539  9.570048942753292  -6.026346406024972  38.467909708553336  11.93289684086649  6.336300094734219  91.74334297575142  34.4369294544351  -75.77819046212727  22.388380545286836  120.000000
9.24945  0.000000  0.000000  0.000000  -37.49511468470416  11.749126037356566  -4.3033738386933145  38.67895049838022  11.958525449669441  7.6912961084024785  93.1601106553619  38.569171446645164  -78.6269489089296  22.28755802287482  120.000000
9.3069  0.000000  0.000000  0.000000  -38.56785778174543  14.036443133820866  -2.0456970608431098  39.07270756290281  11.973086496914963  9.223273698640178  94.06847373982032  42.46139897759701  -81.40665265214211  22.09040125148138  120.000000
9.36435  0.000000  0.000000  0.000000  -39.85403333801718  16.332753797906992  0.7728492767571686  39.67847936040588  11.96234331236339  10.890778336094034  94.41302018988375  46.03777261637046  -83.99530011691131  21.787951791700262  120.000000
9.421800000000001  0.000000  0.000000  0.000000  -41.39827489113332  18.530136107356174  4.1421387817322035  40.519233329728415  11.91513654477383  12.651265019157142  94.19179909589354  49.23904640309344  -86.29525125301096  21.382246571030276  120.000000
9.47925  0.000000  0.000000  0.000000  -43.229006057297994  20.5068785150067  8.002287303760319  41.59201640686202  11.821248973656786  14.45913574256967  93.44418097921249  52.02163854865402  -88.23397763838555  20.893532665659578  120.000000
9.5367  0.000000  0.000000  0.000000  -45.34005280836431  22.138126792614457  12.23467430226491  42.859198769708826  11.674328813893565  16.259971312651714  92.24254178895059  54.36078092920802  -89.76393354927337  20.35922133958979  120.000000
9.59415  0.000000  0.000000  0.000000  -47.66407774091427  23.326553929588396  16.65945611822868  44.26290612729772  11.480110312105268  17.984391219440244  90.68505099528956  56.260788340340746  -90.86256150842792  19.8241700690756  120.000000
9.6516  0.000000  0.000000  0.000000  -50.06540218100198  24.029659272444928  21.04912645841999  45.734766070775294  11.257214136636874  19.55215865719318  88.88850744982041  57.7526840789966  -91.52886216251265  19.330619018996597  120.000000
9.70905  0.000000  0.000000  0.000000  -52.36316656540035  24.271975410684288  25.15888243575788  47.19377161102051  11.026506705959115  20.885125670033762  86.9854139657473  58.88085504808413  -91.78295798792458  18.909391166364394  120.000000
9.7665  0.000000  0.000000  0.000000  -54.365218898379744  24.13743349182182  28.75980228114296  48.54936928488261  10.80408734214964  21.91720845986205  85.11811074202298  59.68920595711502  -91.66789291518367  18.579647588693113  120.000000
9.82395  0.000000  0.000000  0.000000  -55.90534200621036  23.750240781189223  31.666044119331083  49.71264582771215  10.601958172463675  22.598522817355704  83.42865554304976  60.213494503120444  -91.25133763678767  18.35078353052358  120.000000
9.8814  0.000000  0.000000  0.000000  -56.863403405438234  23.243910232672878  33.74515843505848  50.60924259329875  10.42970921701251  22.898708901363662  82.0412166848501  60.47911349812802  -90.61865046752217  18.224292312898232  120.000000
9.93885  0.000000  0.000000  0.000000  -57.16848322953156  22.726807262997607  34.912697089173065  51.191278945957656  10.294305149590105  22.812310248650146  81.04593784688377  60.50445531293594  -89.86034600497636  18.193111562719505  120.000000
9.9963  0.000000  0.000000  0.000000  -56.79261664973374  22.264065758360346  35.121332151096105  51.439730622397995  10.206074350632067  22.354309841664147  80.48370692950562  60.30095665166912  -89.05588067948618  18.239229499673513  120.000000
10.05375  0.000000  0.000000  0.000000  -55.74716755308215  21.870642978723456  34.35488268122535  51.358069080067416  10.181522650349427  21.55136954082093  80.34086165976335  59.87358568170694  -88.25782915003792  18.33444046377286  120.000000
10.1112  0.000000  0.000000  0.000000  -54.08382904677812  21.507591881066656  32.63174442787924  50.96534039069235  10.243597857188952  20.438682135213586  80.55564214379925  59.22354178089669  -87.47603048187662  18.447431315652956  120.000000
10.16865  0.000000  0.000000  0.000000  -51.90056838754973  21.089224053699464  30.01880034726991  50.29208616620646  10.419852524347457  19.06411192682364  81.0316943673156  58.35011681793523  -86.66594443941106  18.547922942004544  120.000000
10.2261  0.000000  0.000000  0.000000  -49.343242215095124  20.497781010324882  26.642001255661718  49.380738194936015  10.733532657939405  17.49868128794025  81.65586922226568  57.25458754810729  -85.73176134542686  18.613195365104207  120.000000
10.28355  0.000000  0.000000  0.000000  -46.599115980725614  19.62095079842357  22.68218951054689  48.28690052316269  11.201743584586463  15.836788716210503  82.3085370162473  55.93996992302883  -84.54673117025085  18.631709970502204  120.000000
10.341000000000001  0.000000  0.000000  0.000000  -43.87403621743562  18.394204238759222  18.34795406808085  47.073570042919535  11.83161005633887  14.183585670088869  82.87053584669712  54.40628398225245  -82.98666973305902  18.606728211378364  120.000000
10.39845  0.000000  0.000000  0.000000  -41.35431350430884  16.820213260792784  13.835610154609691  45.80438749422996  12.610856413180558  12.642165374655276  83.23329845289886  52.64998928413829  -80.9608158470086  18.567153189761402  120.000000
